<!-- Generated by IcoMoon.io -->
<svg version="1.1" xmlns="http://www.w3.org/2000/svg" width="1024" height="1024" viewBox="0 0 1024 1024">
<title></title>
<g id="icomoon-ignore">
</g>
<path d="M512 96c-229.76 0-416 186.24-416 416s186.24 416 416 416 416-186.24 416-416-186.24-416-416-416zM512 864c-194.4 0-352-157.6-352-352s157.6-352 352-352 352 157.6 352 352-157.6 352-352 352zM581.632 362.784h-51.616l-139.328 203.968v53.568h131.488v64.48h59.456v-64.512h39.776v-53.76h-39.776v-203.744zM522.144 566.56h-73.888l73.888-109.888v109.888z"></path>
</svg>
