<!-- Generated by IcoMoon.io -->
<svg version="1.1" xmlns="http://www.w3.org/2000/svg" width="1024" height="1024" viewBox="0 0 1024 1024">
<title></title>
<g id="icomoon-ignore">
</g>
<path d="M512 96c-229.76 0-416 186.24-416 416s186.24 416 416 416 416-186.24 416-416-186.24-416-416-416zM512 864c-194.4 0-352-157.6-352-352s157.6-352 352-352 352 157.6 352 352-157.6 352-352 352zM520.288 444.448c-14.304 0-28.352 3.424-42.016 10.272l9.76-54.528h115.904v-57.504h-162.496l-31.52 167.008 49.824 7.264c14.016-15.68 29.824-23.488 47.488-23.488 14.144 0 25.632 4.928 34.464 14.784s13.248 24.64 13.248 44.352c0 21.024-4.48 36.736-13.344 47.2-8.896 10.464-19.776 15.648-32.64 15.648-11.232 0-21.152-4.032-29.76-12.128-8.64-8.064-13.792-19.040-15.552-32.864l-61.216 6.336c3.648 26.848 14.784 48.192 33.472 64.096 18.688 15.872 42.816 23.808 72.448 23.808 37.056 0 65.984-14.112 86.88-42.464 15.328-20.704 22.944-44.288 22.944-70.72 0-31.648-9.472-57.408-28.448-77.28-19.040-19.872-42.176-29.792-69.44-29.792z"></path>
</svg>
