<!-- Generated by IcoMoon.io -->
<svg version="1.1" xmlns="http://www.w3.org/2000/svg" width="1024" height="1024" viewBox="0 0 1024 1024">
<title></title>
<g id="icomoon-ignore">
</g>
<path d="M512 96c-229.76 0-416 186.24-416 416s186.24 416 416 416 416-186.24 416-416-186.24-416-416-416zM512 864c-194.4 0-352-157.6-352-352s157.6-352 352-352 352 157.6 352 352-157.6 352-352 352zM551.936 487.008c30.816-16.8 46.176-39.296 46.176-67.456 0-19.872-7.488-37.664-22.56-53.44-18.272-19.264-42.56-28.896-72.8-28.896-17.696 0-33.664 3.328-47.904 9.952s-25.344 15.776-33.344 27.36c-7.936 11.584-13.92 27.104-17.888 46.528l56.736 9.664c1.632-14.048 6.176-24.704 13.632-32.032 7.488-7.328 16.512-10.976 27.040-10.976 10.688 0 19.296 3.232 25.728 9.632 6.432 6.432 9.664 15.072 9.664 25.888 0 12.736-4.416 22.912-13.216 30.624-8.736 7.68-21.536 11.296-38.24 10.848l-6.816 50.080c11.008-3.072 20.416-4.608 28.32-4.608 11.968 0 22.112 4.512 30.464 13.536s12.512 21.28 12.512 36.704c0 16.288-4.352 29.248-13.024 38.848-8.704 9.6-19.424 14.4-32.128 14.4-11.84 0-21.952-4-30.24-12-8.352-8-13.44-19.584-15.328-34.752l-59.488 7.232c3.072 26.976 14.144 48.8 33.28 65.504s43.2 25.024 72.256 25.024c30.624 0 56.256-9.888 76.832-29.728 20.608-19.808 30.88-43.776 30.88-71.904 0-19.36-5.504-35.904-16.48-49.6-11.072-13.664-25.728-22.496-44.064-26.432z"></path>
</svg>
