<!-- Generated by IcoMoon.io -->
<svg version="1.1" xmlns="http://www.w3.org/2000/svg" width="1024" height="1024" viewBox="0 0 1024 1024">
<title></title>
<g id="icomoon-ignore">
</g>
<path d="M512 96c-229.76 0-416 186.24-416 416s186.24 416 416 416 416-186.24 416-416-186.24-416-416-416zM512 864c-194.4 0-352-157.6-352-352s157.6-352 352-352 352 157.6 352 352-157.6 352-352 352zM562.048 568.864c19.424-17.792 32.864-31.424 40.32-40.896 11.232-14.304 19.424-28 24.64-41.024 5.152-13.056 7.744-26.816 7.744-41.248 0-25.376-9.056-46.624-27.136-63.68s-42.944-25.6-74.592-25.6c-28.864 0-52.928 7.36-72.192 22.080s-30.72 38.976-34.336 72.8l61.248 6.112c1.152-17.92 5.536-30.72 13.12-38.432 7.552-7.712 17.76-11.552 30.592-11.552 12.96 0 23.136 3.68 30.464 11.040 7.36 7.36 11.072 17.92 11.072 31.616 0 12.384-4.256 24.928-12.672 37.632-6.24 9.184-23.264 26.688-50.944 52.48-34.432 31.936-57.472 57.568-69.12 76.896-11.68 19.328-18.688 39.744-20.992 61.344h215.488v-56.992h-122.208c3.232-5.536 7.392-11.232 12.608-17.088 5.12-5.856 17.44-17.664 36.896-35.488z"></path>
</svg>
