<!-- Generated by IcoMoon.io -->
<svg version="1.1" xmlns="http://www.w3.org/2000/svg" width="1024" height="1024" viewBox="0 0 1024 1024">
<title></title>
<g id="icomoon-ignore">
</g>
<path d="M512 96c-229.76 0-416 186.24-416 416s186.24 416 416 416 416-186.24 416-416-186.24-416-416-416zM512 864c-194.4 0-352-157.6-352-352s157.6-352 352-352 352 157.6 352 352-157.6 352-352 352zM407.808 425.312h139.872c-28.864 36.352-51.936 77.6-69.184 123.744-17.28 46.112-26.432 91.392-27.424 135.776h59.264c-0.16-28.32 4.48-60.448 13.888-96.384 9.376-35.968 23.072-69.92 40.96-101.888 17.92-31.936 35.52-56.448 52.896-73.504v-44.736h-210.24v56.992z"></path>
</svg>
