<!-- Generated by IcoMoon.io -->
<svg version="1.1" xmlns="http://www.w3.org/2000/svg" width="1024" height="1024" viewBox="0 0 1024 1024">
<title></title>
<g id="icomoon-ignore">
</g>
<path d="M512 96c-229.76 0-416 186.24-416 416s186.24 416 416 416 416-186.24 416-416-186.24-416-416-416zM512 864c-194.4 0-352-157.6-352-352s157.6-352 352-352 352 157.6 352 352-157.6 352-352 352zM474.496 406.688c-18.848 14.656-36.288 24.64-52.32 29.888v55.744c30.496-10.048 56.992-25.568 79.488-46.56v227.552h65.504v-320h-53.952c-6.976 19.584-19.904 38.688-38.72 53.376z"></path>
</svg>
