<!-- Generated by IcoMoon.io -->
<svg version="1.1" xmlns="http://www.w3.org/2000/svg" width="1024" height="1024" viewBox="0 0 1024 1024">
<title></title>
<g id="icomoon-ignore">
</g>
<path d="M512 96c-229.76 0-416 186.24-416 416s186.24 416 416 416 416-186.24 416-416-186.24-416-416-416zM512 864c-194.4 0-352-157.6-352-352s157.6-352 352-352 352 157.6 352 352-157.6 352-352 352zM528.64 469.92c-22.752 0-41.76 9.024-57.088 27.136 2.336-36.832 7.968-61.056 16.928-72.672s19.904-17.44 32.896-17.44c9.76 0 17.696 2.912 23.808 8.736s9.92 14.816 11.36 27.040l59.488-6.56c-4.384-25.92-14.56-45.664-30.528-59.296-15.968-13.6-36.128-20.416-60.48-20.416-34.72 0-62.944 12.96-84.672 38.944-21.728 25.952-32.576 68.32-32.576 127.104 0 57.312 10.4 98.56 31.296 123.712 20.832 25.152 47.456 37.76 79.872 37.76 30.208 0 54.944-9.952 74.176-29.792 19.296-19.872 28.896-46.24 28.896-79.104 0-30.976-9.184-56.224-27.456-75.776-18.272-19.616-40.256-29.376-65.92-29.376zM550.432 619.52c-7.552 8.896-17.056 13.344-28.416 13.344-11.776 0-22.272-5.44-31.456-16.32s-13.76-26.336-13.76-46.368c0-18.112 4.064-31.84 12.224-41.12s18.144-13.952 29.952-13.952c12.224 0 22.432 4.864 30.592 14.592s12.256 25.024 12.256 45.952c0 20.352-3.808 34.976-11.392 43.872z"></path>
</svg>
